<?xml version="1.0" encoding="utf-8"?>
<!-- Generator: Adobe Illustrator 22.1.0, SVG Export Plug-In . SVG Version: 6.00 Build 0)  -->
<svg version="1.1" id="Capa_1" xmlns="http://www.w3.org/2000/svg" xmlns:xlink="http://www.w3.org/1999/xlink" x="0px" y="0px"
	 viewBox="0 0 23 12.9" style="enable-background:new 0 0 23 12.9;" xml:space="preserve">
<style type="text/css">
	.st0{fill:#606060;}
	.st1{fill:none;stroke:#606060;stroke-width:0.5;stroke-miterlimit:10;}
</style>
<g>
	<path class="st0" d="M3.9,1.1C4.4,1.7,4.2,3.6,3.6,4C3.3,4.1,2.4,4,2.1,4.2C1.2,4.9,1.5,7.5,2.2,8.4c0.2,0.3,0.9,0.2,1.3,0.3
		c0.7,0.2,1,2.4,0.5,2.9C3.5,11.9,2.4,12,2,11.7c-1.1-0.8-1.4-4.2-1.5-5.6C0.4,4.7,0.9,1.8,1.9,1C2.3,0.6,3.6,0.7,3.9,1.1z"/>
	<g>
		<path class="st0" d="M8,9.8c0,0,0-0.1,0-0.2V9.5c0-0.1,0-0.2,0-0.2c0,0,0.1-0.1,0.1-0.1h1.7V4L8.2,4.3C8.1,4.3,8.1,4.2,8,4.1
			C8,4,8,3.9,8,3.8C8,3.7,8,3.6,8.1,3.6l2.2-0.5c0.1,0,0.1,0,0.2,0.1c0.1,0,0.1,0.1,0.1,0.1v5.8h1.4c0.1,0,0.1,0,0.1,0.1
			c0,0,0,0.1,0,0.2v0.1c0,0.1,0,0.2,0,0.2c0,0-0.1,0.1-0.1,0.1H8.2C8.1,9.9,8.1,9.8,8,9.8z"/>
		<path class="st0" d="M16,9.7V8.3h-2.9c-0.1,0-0.1-0.1-0.2-0.2c-0.1-0.1-0.1-0.2-0.1-0.3c0-0.1,0-0.1,0-0.1L16,3.3
			c0.1-0.1,0.2-0.1,0.3-0.1h0.2c0.2,0,0.3,0.1,0.3,0.2v4.2h0.6c0.1,0,0.1,0,0.1,0.1s0,0.1,0,0.2V8c0,0.1,0,0.2,0,0.2
			c0,0-0.1,0.1-0.1,0.1h-0.6v1.4c0,0.1-0.1,0.2-0.3,0.2h-0.2C16.1,9.9,16,9.8,16,9.7z M16,7.6V4.8c0-0.1,0-0.2,0-0.3l0,0l-2.2,3.1
			H16z"/>
		<path class="st0" d="M18.9,9.8c-0.1,0-0.1-0.1-0.1-0.1c0,0,0-0.1,0-0.1l2.8-5.7h-3c-0.1,0-0.1,0-0.1-0.1c0,0,0-0.1,0-0.2V3.4
			c0-0.1,0-0.2,0-0.2c0,0,0.1-0.1,0.1-0.1h3.8c0,0,0.1,0.1,0.1,0.2c0,0.1,0.1,0.2,0.1,0.3c0,0,0,0.1,0,0.1l-2.8,6
			c0,0-0.1,0.1-0.1,0.1c-0.1,0-0.1,0-0.2,0h-0.1C19,9.9,18.9,9.9,18.9,9.8z"/>
	</g>
	<path class="st1" d="M4.7,3.9c1.3,0,1.3,4.6,0,4.6"/>
	<path class="st1" d="M5.8,3.3c1.6,0,1.6,5.8,0,5.8"/>
</g>
</svg>
