<?xml version="1.0" encoding="utf-8"?>
<!-- Generator: Adobe Illustrator 22.1.0, SVG Export Plug-In . SVG Version: 6.00 Build 0)  -->
<svg version="1.1" id="Capa_1" xmlns="http://www.w3.org/2000/svg" xmlns:xlink="http://www.w3.org/1999/xlink" x="0px" y="0px"
	 viewBox="0 0 39.6 37.6" style="enable-background:new 0 0 39.6 37.6;" xml:space="preserve">
<style type="text/css">
	.st0{fill:#15848F;stroke:#15848F;stroke-width:0.2023;stroke-miterlimit:10;}
</style>
<g>
	<g>
		<path class="st0" d="M35.7,8.1H20.5V5.7c0,0,0,0,0,0c0-1.8,1.4-3.2,3.2-3.2H31c0.2,0,0.4-0.2,0.4-0.4c0-0.2-0.2-0.4-0.4-0.4h-7.2
			c-2.2,0-4,1.8-4,4c0,0,0,0,0,0v2.4H4.3c-1.5,0-2.7,1.2-2.7,2.7v16.6c0,1.5,1.2,2.7,2.7,2.7h0.3c0.1,1,0.3,2.3,0.8,3.3
			c-0.5,0.2-0.9,0.7-0.9,1.3c0,0.7,0.6,1.4,1.4,1.4h7.6c0.7,0,1.4-0.6,1.4-1.4c0-0.6-0.4-1.1-0.9-1.3c0.1-1,0.4-2.1,0.8-2.6
			c0.1-0.1,0.2-0.4,0.4-0.7h10c0.1,0.3,0.3,0.5,0.4,0.7c0.4,0.5,0.8,1.6,0.8,2.6c-0.5,0.2-0.9,0.7-0.9,1.3c0,0.7,0.6,1.4,1.4,1.4
			h7.6c0.7,0,1.4-0.6,1.4-1.4c0-0.6-0.4-1.1-0.9-1.3c0.4-1,0.7-2.3,0.8-3.3h0c1.5,0,2.7-1.2,2.7-2.7V10.8
			C38.4,9.3,37.2,8.1,35.7,8.1z M14,34.6c0,0.3-0.3,0.6-0.6,0.6H5.8c-0.3,0-0.6-0.3-0.6-0.6c0-0.3,0.3-0.6,0.6-0.6h7.6
			C13.8,34,14,34.3,14,34.6z M14.6,29.4C14.6,29.4,14.6,29.4,14.6,29.4c-0.2,0.4-0.4,0.7-0.5,0.8c-0.5,0.7-0.9,1.9-1,3.1H6.2
			c-0.8-1.6-0.9-4.6-0.9-4.7v-3.9c0-0.4,0.3-0.7,0.7-0.7s0.7,0.3,0.7,0.7V26c0,0.2,0.2,0.4,0.4,0.4c0.2,0,0.4-0.2,0.4-0.4v-3.3
			c0-0.4,0.3-0.7,0.7-0.7c0.4,0,0.7,0.3,0.7,0.7v1.5c0,0.2,0.2,0.4,0.4,0.4c0.2,0,0.4-0.2,0.4-0.4v-3.3c0-0.4,0.3-0.7,0.7-0.7
			c0.4,0,0.7,0.3,0.7,0.7c0,0,0,0,0,0v2.5c0,0.2,0.2,0.4,0.4,0.4c0.2,0,0.4-0.2,0.4-0.4v-6.3c0-0.4,0.3-0.7,0.7-0.7
			c0.4,0,0.7,0.3,0.7,0.7v8.9c0,0.2,0.1,0.4,0.3,0.4c0.2,0,0.4-0.1,0.4-0.3c0.2-0.5,0.7-1.6,1.3-2.2c0.1-0.1,0.2-0.1,0.3-0.2
			c0.1-0.1,0.2-0.1,0.3-0.1c0.2-0.1,0.5,0,0.7,0.1c0,0,0,0.1,0.1,0.2C16.8,25,15.4,27.9,14.6,29.4z M5.9,22.9V22
			c0-0.3,0.2-0.5,0.5-0.5h1c-0.4,0.3-0.7,0.7-0.7,1.3v0.6c-0.2-0.1-0.5-0.2-0.7-0.2c0,0,0,0,0,0C5.9,23,5.9,23,5.9,22.9z M13.9,16.4
			h0.7c0.3,0,0.5,0.2,0.5,0.5v0.9c0,0.3-0.2,0.5-0.5,0.5h-0.5v-1.3C14.1,16.9,14.1,16.6,13.9,16.4z M14.1,23.4v-2h0.5
			c0.3,0,0.5,0.2,0.5,0.5v0.9c0,0.1,0,0.2-0.1,0.3c-0.1,0.1-0.1,0.1-0.2,0.2c-0.1,0-0.2,0.1-0.2,0.1L14.1,23.4L14.1,23.4z
			 M14.2,24.2c0,0-0.1,0.1-0.1,0.1L14.2,24.2L14.2,24.2z M35,34.6c0,0.3-0.3,0.6-0.6,0.6h-7.6c-0.3,0-0.6-0.3-0.6-0.6
			c0-0.3,0.3-0.6,0.6-0.6h7.6C34.8,34,35,34.3,35,34.6z M35,28.5c0,0.1,0,0.5-0.1,1.1c-0.2,1.6-0.5,2.9-0.9,3.7h-6.9
			c-0.1-1-0.4-2.3-1-3.1c0,0-0.2-0.2-0.5-0.8c-0.5-0.9-1.2-2.2-1.6-3.5c-0.7-1.9-0.4-2.2-0.4-2.2c0.2-0.2,0.5-0.2,0.7-0.1
			c0.2,0.1,0.4,0.2,0.6,0.4c0.7,0.8,1.2,2.1,1.2,2.1c0.1,0.2,0.2,0.3,0.4,0.3c0.2,0,0.3-0.2,0.3-0.4v-8.9c0,0,0,0,0,0
			c0-0.1,0-0.1,0-0.2c0,0,0,0,0,0c0,0,0,0,0,0c0.1-0.3,0.3-0.5,0.6-0.5c0,0,0.1,0,0.1,0c0.4,0,0.7,0.3,0.7,0.7v6.3
			c0,0.2,0.2,0.4,0.4,0.4c0.2,0,0.4-0.2,0.4-0.4v-2.5c0,0,0,0,0,0c0-0.4,0.3-0.7,0.7-0.7s0.7,0.3,0.7,0.7v3.3c0,0.2,0.2,0.4,0.4,0.4
			s0.4-0.2,0.4-0.4v-1.5c0,0,0,0,0,0c0-0.4,0.3-0.7,0.7-0.7c0.4,0,0.7,0.3,0.7,0.7v1.9c0,0,0,0,0,0c0,0,0,0,0,0V26
			c0,0.2,0.2,0.4,0.4,0.4c0.2,0,0.4-0.2,0.4-0.4v-1.4c0,0,0,0,0,0c0-0.2,0.1-0.4,0.2-0.5c0.1-0.1,0.3-0.2,0.5-0.2c0,0,0,0,0,0
			c0.4,0,0.7,0.3,0.7,0.7L35,28.5L35,28.5z M25.5,23.4c-0.2-0.2-0.4-0.3-0.6-0.4c0,0,0-0.1,0-0.1V22c0-0.3,0.2-0.5,0.5-0.5h0.8v2
			H25.5z M26.2,24.2v0.1C26.1,24.3,26.1,24.3,26.2,24.2L26.2,24.2z M26.2,17c0,0,0,0.1,0,0.1l0,0l0,0v1.3h-0.8
			c-0.3,0-0.5-0.2-0.5-0.5v-0.9c0-0.3,0.2-0.5,0.5-0.5h1c0,0,0,0.1,0,0.1c0,0,0,0,0,0c0,0,0,0.1,0,0.1c0,0,0,0,0,0c0,0,0,0.1,0,0.1
			c0,0,0,0,0,0c0,0,0,0.1,0,0.1c0,0,0,0,0,0C26.2,16.9,26.2,16.9,26.2,17C26.2,17,26.2,17,26.2,17z M32.9,21.4h0.7
			c0.3,0,0.5,0.2,0.5,0.5v0.9c0,0.1,0,0.2-0.1,0.2c-0.2,0-0.3,0.1-0.5,0.2v-0.6C33.6,22.2,33.3,21.7,32.9,21.4z M37.6,27.3
			c0,1-0.8,1.9-1.8,1.9c0-0.4,0-0.7,0-0.7c0,0,0,0,0,0v-3.9c0-0.6-0.4-1.2-0.9-1.4c0-0.1,0-0.2,0-0.3V22c0-0.7-0.6-1.3-1.3-1.3h-1.9
			c-0.1,0-0.2,0-0.3,0c-0.1-0.7-0.7-1.3-1.5-1.3c-0.3,0-0.5,0.1-0.7,0.2v-2.5c0-0.8-0.7-1.5-1.5-1.5c0,0-0.1,0-0.1,0
			c-0.1,0-0.2,0-0.3,0h-1.9c-0.7,0-1.3,0.6-1.3,1.3v0.9c0,0.7,0.6,1.3,1.3,1.3h0.8v1.4h-0.8c-0.7,0-1.3,0.6-1.3,1.3v0.9
			c-0.3,0-0.6,0.1-0.8,0.3c-0.6,0.4-0.5,1.4,0.1,3.1c0.4,1,0.9,2.1,1.4,3h-9.1c0.9-1.6,2-4.2,1.9-5.4c0-0.3-0.2-0.6-0.4-0.7
			c-0.3-0.2-0.7-0.3-1.1-0.3V22c0-0.7-0.6-1.3-1.3-1.3h-0.5v-1.4h0.5c0.7,0,1.3-0.6,1.3-1.3v-0.9c0-0.7-0.6-1.3-1.3-1.3h-1.9
			c-0.1,0-0.2,0-0.3,0c-0.8,0.1-1.4,0.7-1.4,1.5v2.5c-0.2-0.1-0.5-0.2-0.7-0.2c-0.8,0-1.4,0.6-1.5,1.3c-0.2-0.1-0.4-0.1-0.6-0.1H6.5
			c-0.7,0-1.3,0.6-1.3,1.3v0.9c0,0.1,0,0.3,0.1,0.4c-0.4,0.3-0.7,0.7-0.7,1.3v3.9c0,0,0,0,0,0c0,0,0,0.3,0,0.7H4.3
			c-1,0-1.9-0.8-1.9-1.9V10.8c0-1,0.8-1.9,1.9-1.9h31.4c1,0,1.9,0.8,1.9,1.9L37.6,27.3L37.6,27.3z"/>
		<path class="st0" d="M8.3,10.6H6.5c-0.7,0-1.3,0.6-1.3,1.3v0.9c0,0.7,0.6,1.3,1.3,1.3h1.9c0.7,0,1.3-0.6,1.3-1.3v-0.9
			C9.7,11.2,9.1,10.6,8.3,10.6z M8.9,12.8c0,0.3-0.2,0.5-0.5,0.5H6.5c-0.3,0-0.5-0.2-0.5-0.5v-0.9c0-0.3,0.2-0.5,0.5-0.5h1.9
			c0.3,0,0.5,0.2,0.5,0.5V12.8z"/>
		<path class="st0" d="M14.7,10.6h-1.9c-0.7,0-1.3,0.6-1.3,1.3v0.9c0,0.7,0.6,1.3,1.3,1.3h1.9c0.7,0,1.3-0.6,1.3-1.3v-0.9
			C16,11.2,15.4,10.6,14.7,10.6z M15.2,12.8c0,0.3-0.2,0.5-0.5,0.5h-1.9c-0.3,0-0.5-0.2-0.5-0.5v-0.9c0-0.3,0.2-0.5,0.5-0.5h1.9
			c0.3,0,0.5,0.2,0.5,0.5V12.8z"/>
		<path class="st0" d="M21,10.6h-1.9c-0.7,0-1.3,0.6-1.3,1.3v0.9c0,0.7,0.6,1.3,1.3,1.3H21c0.7,0,1.3-0.6,1.3-1.3v-0.9
			C22.3,11.2,21.7,10.6,21,10.6z M21.5,12.8c0,0.3-0.2,0.5-0.5,0.5h-1.9c-0.3,0-0.5-0.2-0.5-0.5v-0.9c0-0.3,0.2-0.5,0.5-0.5H21
			c0.3,0,0.5,0.2,0.5,0.5V12.8z"/>
		<path class="st0" d="M27.3,10.6h-1.9c-0.7,0-1.3,0.6-1.3,1.3v0.9c0,0.7,0.6,1.3,1.3,1.3h1.9c0.7,0,1.3-0.6,1.3-1.3v-0.9
			C28.6,11.2,28,10.6,27.3,10.6z M27.8,12.8c0,0.3-0.2,0.5-0.5,0.5h-1.9c-0.3,0-0.5-0.2-0.5-0.5v-0.9c0-0.3,0.2-0.5,0.5-0.5h1.9
			c0.3,0,0.5,0.2,0.5,0.5V12.8z"/>
		<path class="st0" d="M33.6,10.6h-1.9c-0.7,0-1.3,0.6-1.3,1.3v0.9c0,0.7,0.6,1.3,1.3,1.3h1.9c0.7,0,1.3-0.6,1.3-1.3v-0.9
			C34.9,11.2,34.3,10.6,33.6,10.6z M34.1,12.8c0,0.3-0.2,0.5-0.5,0.5h-1.9c-0.3,0-0.5-0.2-0.5-0.5v-0.9c0-0.3,0.2-0.5,0.5-0.5h1.9
			c0.3,0,0.5,0.2,0.5,0.5V12.8z"/>
		<path class="st0" d="M8.3,15.6H6.5c-0.7,0-1.3,0.6-1.3,1.3v0.9c0,0.7,0.6,1.3,1.3,1.3h1.9c0.7,0,1.3-0.6,1.3-1.3v-0.9
			C9.7,16.2,9.1,15.6,8.3,15.6z M8.9,17.9c0,0.3-0.2,0.5-0.5,0.5H6.5c-0.3,0-0.5-0.2-0.5-0.5v-0.9c0-0.3,0.2-0.5,0.5-0.5h1.9
			c0.3,0,0.5,0.2,0.5,0.5V17.9z"/>
		<path class="st0" d="M21,15.6h-1.9c-0.7,0-1.3,0.6-1.3,1.3v0.9c0,0.7,0.6,1.3,1.3,1.3H21c0.7,0,1.3-0.6,1.3-1.3v-0.9
			C22.3,16.2,21.7,15.6,21,15.6z M21.5,17.9c0,0.3-0.2,0.5-0.5,0.5h-1.9c-0.3,0-0.5-0.2-0.5-0.5v-0.9c0-0.3,0.2-0.5,0.5-0.5H21
			c0.3,0,0.5,0.2,0.5,0.5V17.9z"/>
		<path class="st0" d="M33.6,15.6h-1.9c-0.7,0-1.3,0.6-1.3,1.3v0.9c0,0.7,0.6,1.3,1.3,1.3h1.9c0.7,0,1.3-0.6,1.3-1.3v-0.9
			C34.9,16.2,34.3,15.6,33.6,15.6z M34.1,17.9c0,0.3-0.2,0.5-0.5,0.5h-1.9c-0.3,0-0.5-0.2-0.5-0.5v-0.9c0-0.3,0.2-0.5,0.5-0.5h1.9
			c0.3,0,0.5,0.2,0.5,0.5V17.9z"/>
		<path class="st0" d="M21,20.6h-1.9c-0.7,0-1.3,0.6-1.3,1.3v0.9c0,0.7,0.6,1.3,1.3,1.3H21c0.7,0,1.3-0.6,1.3-1.3V22
			C22.3,21.2,21.7,20.6,21,20.6z M21.5,22.9c0,0.3-0.2,0.5-0.5,0.5h-1.9c-0.3,0-0.5-0.2-0.5-0.5V22c0-0.3,0.2-0.5,0.5-0.5H21
			c0.3,0,0.5,0.2,0.5,0.5V22.9z"/>
	</g>
</g>
</svg>
