<?xml version="1.0" encoding="utf-8"?>
<!-- Generator: Adobe Illustrator 22.1.0, SVG Export Plug-In . SVG Version: 6.00 Build 0)  -->
<svg version="1.1" id="Capa_1" xmlns="http://www.w3.org/2000/svg" xmlns:xlink="http://www.w3.org/1999/xlink" x="0px" y="0px"
	 viewBox="0 0 148 138" style="enable-background:new 0 0 148 138;" xml:space="preserve">
<style type="text/css">
	.st0{fill:none;stroke:#000000;stroke-width:4;stroke-linecap:round;stroke-linejoin:round;stroke-miterlimit:10;}
	.st1{fill:#FFFFFF;stroke:#FFFFFF;stroke-miterlimit:10;}
</style>
<g>
	<path class="st1" d="M133,29.2H76.8v-8.9l0,0c0-6.6,5.4-11.9,11.9-11.9h26.8c0.8,0,1.4-0.6,1.4-1.4s-0.6-1.4-1.4-1.4H88.7
		c-8.2,0-14.8,6.6-14.8,14.8l0,0v8.9H16.6c-5.5,0-9.9,4.4-9.9,9.9v61.5c0,5.5,4.4,9.9,9.9,9.9h1c0.4,3.7,1.3,8.6,2.9,12.3
		c-2,0.7-3.4,2.5-3.4,4.7c0,2.8,2.3,5,5,5h28.2c2.8,0,5-2.3,5-5c0-2.2-1.4-4-3.4-4.7c0.2-3.8,1.4-7.8,3-9.8c0.3-0.4,0.9-1.3,1.6-2.5
		h37.1c0.6,0.9,1.2,2,1.6,2.5c1.6,2,2.8,6,3,9.8c-2,0.7-3.4,2.5-3.4,4.7c0,2.8,2.3,5,5,5H128c2.8,0,5-2.3,5-5c0-2.2-1.4-4-3.4-4.7
		c1.6-3.6,2.4-8.4,2.9-12.3h0.1c5.5,0,9.9-4.4,9.9-9.9V39.2C142.9,33.6,138.5,29.2,133,29.2z M52.6,127.5c0,1.2-1,2.1-2.1,2.1H22.3
		c-1.2,0-2.1-1-2.1-2.1c0-1.2,1-2.1,2.1-2.1h28.2C51.6,125.3,52.6,126.3,52.6,127.5z M54.8,108.1c-0.1,0.1-0.1,0.2-0.2,0.3
		c-0.7,1.3-1.3,2.2-1.7,2.7c-2,2.4-3.4,6.9-3.7,11.3H23.6c-3-5.8-3.5-17-3.5-17.6V90.4c0-1.5,1.2-2.7,2.7-2.7s2.7,1.2,2.7,2.7v5.1
		c0,0.8,0.6,1.4,1.4,1.4c0.8,0,1.4-0.6,1.4-1.4V83.4c0-1.5,1.2-2.7,2.7-2.7c1.5,0,2.7,1.2,2.7,2.7v5.5c0,0.8,0.6,1.4,1.4,1.4
		c0.8,0,1.4-0.6,1.4-1.4V76.8c0-1.5,1.2-2.7,2.7-2.7s2.7,1.2,2.7,2.7c0,0,0,0,0,0.1v9.3c0,0.8,0.6,1.4,1.4,1.4
		c0.8,0,1.4-0.6,1.4-1.4V62.7c0-1.5,1.2-2.7,2.7-2.7s2.7,1.2,2.7,2.7v33.1c0,0.7,0.5,1.3,1.2,1.4c0.7,0.1,1.4-0.3,1.6-0.9
		c0.6-1.8,2.4-5.8,4.6-8.1c0.4-0.2,0.7-0.5,1-0.9c0.3-0.2,0.7-0.4,1.1-0.5c0.9-0.3,1.7-0.1,2.6,0.5c0,0,0.2,0.2,0.2,0.6
		C63,91.9,57.9,102.7,54.8,108.1z M22.5,84.1v-3.5c0-1.1,0.9-2,2-2h3.7c-1.7,1-2.8,2.8-2.8,4.8v2.2c-0.8-0.4-1.7-0.7-2.7-0.7h-0.1
		C22.6,84.6,22.5,84.4,22.5,84.1z M52.2,60h2.7c1.1,0,2,0.9,2,2v3.5c0,1.1-0.9,2-2,2h-2v-4.8C53,61.7,52.7,60.8,52.2,60z M53,86.1
		v-7.5h2c1.1,0,2,0.9,2,2v3.5c0,0.4-0.1,0.8-0.4,1.2c-0.2,0.2-0.5,0.4-0.7,0.6c-0.3,0.1-0.6,0.2-0.9,0.2H53L53,86.1z M53.3,89
		c-0.1,0.2-0.2,0.3-0.3,0.5V89H53.3z M130.5,127.5c0,1.2-1,2.1-2.1,2.1h-28.2c-1.2,0-2.1-1-2.1-2.1c0-1.2,1-2.1,2.1-2.1h28.2
		C129.6,125.3,130.5,126.3,130.5,127.5z M130.5,104.8c0,0.2-0.1,1.8-0.3,4c-0.6,5.9-1.7,10.7-3.2,13.6h-25.6
		c-0.2-3.8-1.4-8.6-3.7-11.3c-0.1-0.2-0.6-0.8-1.8-2.8c-1.8-3.2-4.4-8.2-6.1-12.8c-2.6-7-1.5-8.1-1.5-8.1c0.9-0.6,1.8-0.8,2.7-0.5
		c0.7,0.3,1.5,0.8,2.3,1.6c2.6,2.8,4.4,7.8,4.4,7.8c0.2,0.7,0.9,1.1,1.6,0.9c0.7-0.1,1.2-0.7,1.2-1.4V62.7l0,0c0-0.2,0-0.5,0.1-0.7
		l0,0c0,0,0,0,0-0.1c0.3-1,1.1-1.7,2.2-1.9c0.1,0,0.2,0,0.4,0c1.5,0,2.7,1.2,2.7,2.7v23.4c0,0.8,0.6,1.4,1.4,1.4
		c0.8,0,1.4-0.6,1.4-1.4v-9.3c0,0,0,0,0-0.1c0-1.5,1.2-2.7,2.7-2.7s2.7,1.2,2.7,2.7v12.1c0,0.8,0.6,1.4,1.4,1.4s1.4-0.6,1.4-1.4
		v-5.5l0,0c0-1.5,1.2-2.7,2.7-2.7s2.7,1.2,2.7,2.7v7c0,0,0,0,0,0.1l0,0v5.1c0,0.8,0.6,1.4,1.4,1.4c0.8,0,1.4-0.6,1.4-1.4v-5.2l0,0
		c0-0.7,0.3-1.3,0.8-1.8s1.1-0.8,1.8-0.8c0,0,0,0,0.1,0c1.5,0,2.7,1.2,2.7,2.7L130.5,104.8L130.5,104.8z M95,86.1
		c-0.7-0.7-1.5-1.3-2.3-1.7c0-0.1,0-0.2,0-0.4v-3.5c0-1.1,0.9-2,2-2h2.9V86L95,86.1L95,86.1z M97.7,89v0.5c-0.1-0.2-0.2-0.3-0.3-0.5
		H97.7z M97.7,62.3c0,0.2,0,0.3,0,0.5l0,0l0,0v4.8h-2.9c-1.1,0-2-0.9-2-2v-3.5c0-1.1,0.9-2,2-2h3.7c-0.1,0.1-0.1,0.2-0.2,0.3l0,0
		c-0.1,0.1-0.1,0.2-0.2,0.4v0.1c0,0.1-0.1,0.2-0.1,0.3v0.1c0,0.1-0.1,0.3-0.1,0.4v0.1c0,0.1,0,0.2,0,0.4
		C97.7,62.2,97.7,62.2,97.7,62.3z M122.4,78.6h2.7c1.1,0,2,0.9,2,2v3.5c0,0.3-0.1,0.6-0.2,0.9c-0.6,0.1-1.2,0.3-1.8,0.6v-2.2
		C125.2,81.3,124.1,79.6,122.4,78.6z M140,100.5c0,3.8-3,6.9-6.8,7c0.1-1.6,0.2-2.6,0.2-2.6s0,0,0-0.1V90.4c0-2.3-1.5-4.3-3.5-5.2
		c0.1-0.4,0.2-0.8,0.2-1.2v-3.5c0-2.7-2.2-4.9-4.9-4.9h-7c-0.4,0-0.8,0.1-1.2,0.2c-0.4-2.6-2.7-4.6-5.5-4.6c-1,0-1.9,0.3-2.7,0.7
		v-9.2c0-3.1-2.5-5.5-5.6-5.5c-0.2,0-0.3,0-0.5,0c-0.3-0.1-0.7-0.1-1-0.1h-7c-2.7,0-4.9,2.2-4.9,4.9v3.5c0,2.7,2.2,4.9,4.9,4.9h2.9
		v5.3h-2.9c-2.7,0-4.9,2.2-4.9,4.9v3.2c-1,0.1-2.1,0.5-3.1,1.1c-2.1,1.5-2,5.1,0.4,11.5c1.4,3.8,3.4,7.9,5.1,11.1H58.3
		c3.3-6.1,7.5-15.6,6.9-20c-0.2-1.2-0.6-2-1.4-2.6c-1.3-0.9-2.7-1.3-4-1.1v-3.2c0-2.7-2.2-4.9-4.9-4.9h-2v-5.3h2
		c2.7,0,4.9-2.2,4.9-4.9V62c0-2.7-2.2-4.9-4.9-4.9h-7c-0.4,0-0.7,0-1,0.1c-2.8,0.3-5,2.6-5,5.5v9.2c-0.8-0.4-1.7-0.7-2.7-0.7
		c-2.9,0-5.2,2.2-5.5,5c-0.6-0.3-1.4-0.5-2.1-0.5h-7c-2.7,0-4.9,2.2-4.9,4.9v3.5c0,0.6,0.1,1.1,0.3,1.6c-1.6,1-2.7,2.7-2.7,4.7v14.4
		c0,0,0,0,0,0.1s0,1.1,0.2,2.6h-0.9c-3.9,0-7-3.1-7-7V39c0-3.9,3.1-7,7-7H133c3.9,0,7,3.1,7,7V100.5L140,100.5z"/>
	<path class="st1" d="M31.5,38.3h-7c-2.7,0-4.9,2.2-4.9,4.9v3.5c0,2.7,2.2,4.9,4.9,4.9h7c2.7,0,4.9-2.2,4.9-4.9v-3.5
		C36.4,40.5,34.2,38.3,31.5,38.3z M33.6,46.7c0,1.1-0.9,2-2,2h-7c-1.1,0-2-0.9-2-2v-3.5c0-1.1,0.9-2,2-2h7c1.1,0,2,0.9,2,2V46.7z"/>
	<path class="st1" d="M54.9,38.3h-7c-2.7,0-4.9,2.2-4.9,4.9v3.5c0,2.7,2.2,4.9,4.9,4.9h7c2.7,0,4.9-2.2,4.9-4.9v-3.5
		C59.8,40.5,57.6,38.3,54.9,38.3z M57,46.7c0,1.1-0.9,2-2,2h-7c-1.1,0-2-0.9-2-2v-3.5c0-1.1,0.9-2,2-2h7c1.1,0,2,0.9,2,2
		C57,43.2,57,46.7,57,46.7z"/>
	<path class="st1" d="M78.3,38.3h-7c-2.7,0-4.9,2.2-4.9,4.9v3.5c0,2.7,2.2,4.9,4.9,4.9h7c2.7,0,4.9-2.2,4.9-4.9v-3.5
		C83.2,40.5,81,38.3,78.3,38.3z M80.4,46.7c0,1.1-0.9,2-2,2h-7c-1.1,0-2-0.9-2-2v-3.5c0-1.1,0.9-2,2-2h7c1.1,0,2,0.9,2,2
		C80.4,43.2,80.4,46.7,80.4,46.7z"/>
	<path class="st1" d="M101.7,38.3h-7c-2.7,0-4.9,2.2-4.9,4.9v3.5c0,2.7,2.2,4.9,4.9,4.9h7c2.7,0,4.9-2.2,4.9-4.9v-3.5
		C106.6,40.5,104.4,38.3,101.7,38.3z M103.8,46.7c0,1.1-0.9,2-2,2h-7c-1.1,0-2-0.9-2-2v-3.5c0-1.1,0.9-2,2-2h7c1.1,0,2,0.9,2,2V46.7
		z"/>
	<path class="st1" d="M125.1,38.3h-7c-2.7,0-4.9,2.2-4.9,4.9v3.5c0,2.7,2.2,4.9,4.9,4.9h7c2.7,0,4.9-2.2,4.9-4.9v-3.5
		C130,40.5,127.8,38.3,125.1,38.3z M127.2,46.7c0,1.1-0.9,2-2,2h-7c-1.1,0-2-0.9-2-2v-3.5c0-1.1,0.9-2,2-2h7c1.1,0,2,0.9,2,2V46.7z"
		/>
	<path class="st1" d="M31.5,57.1h-7c-2.7,0-4.9,2.2-4.9,4.9v3.5c0,2.7,2.2,4.9,4.9,4.9h7c2.7,0,4.9-2.2,4.9-4.9V62
		C36.4,59.3,34.2,57.1,31.5,57.1z M33.6,65.5c0,1.1-0.9,2-2,2h-7c-1.1,0-2-0.9-2-2V62c0-1.1,0.9-2,2-2h7c1.1,0,2,0.9,2,2V65.5z"/>
	<path class="st1" d="M78.3,57.1h-7c-2.7,0-4.9,2.2-4.9,4.9v3.5c0,2.7,2.2,4.9,4.9,4.9h7c2.7,0,4.9-2.2,4.9-4.9V62
		C83.2,59.3,81,57.1,78.3,57.1z M80.4,65.5c0,1.1-0.9,2-2,2h-7c-1.1,0-2-0.9-2-2V62c0-1.1,0.9-2,2-2h7c1.1,0,2,0.9,2,2
		C80.4,62,80.4,65.5,80.4,65.5z"/>
	<path class="st1" d="M125.1,57.1h-7c-2.7,0-4.9,2.2-4.9,4.9v3.5c0,2.7,2.2,4.9,4.9,4.9h7c2.7,0,4.9-2.2,4.9-4.9V62
		C130,59.3,127.8,57.1,125.1,57.1z M127.2,65.5c0,1.1-0.9,2-2,2h-7c-1.1,0-2-0.9-2-2V62c0-1.1,0.9-2,2-2h7c1.1,0,2,0.9,2,2V65.5z"/>
	<path class="st1" d="M78.3,75.7h-7c-2.7,0-4.9,2.2-4.9,4.9v3.5c0,2.7,2.2,4.9,4.9,4.9h7c2.7,0,4.9-2.2,4.9-4.9v-3.5
		C83.2,77.9,81,75.7,78.3,75.7z M80.4,84.1c0,1.1-0.9,2-2,2h-7c-1.1,0-2-0.9-2-2v-3.5c0-1.1,0.9-2,2-2h7c1.1,0,2,0.9,2,2
		C80.4,80.6,80.4,84.1,80.4,84.1z"/>
</g>
</svg>
