<?xml version="1.0" encoding="utf-8"?>
<!-- Generator: Adobe Illustrator 22.1.0, SVG Export Plug-In . SVG Version: 6.00 Build 0)  -->
<svg version="1.1" id="Layer_1" xmlns="http://www.w3.org/2000/svg" xmlns:xlink="http://www.w3.org/1999/xlink" x="0px" y="0px"
	 viewBox="0 0 35.9 36.7" style="enable-background:new 0 0 35.9 36.7;" xml:space="preserve">
<style type="text/css">
	.st0{fill:#606060;}
</style>
<path class="st0" d="M20.2,34.2c0,0.6,0.2,1.2,0.5,1.7H4.4c-2.5,0-4.4-2-4.4-4.4V9.2C0,9,0,8.7,0.2,8.4C0.3,8.2,0.4,8,0.6,7.8
	l7.6-7.2c0.2-0.2,0.4-0.3,0.6-0.4C9.1,0,9.3,0,9.6,0h14.5c2.5,0,4.4,2,4.4,4.4v13.3c-0.3-0.2-0.7-0.3-1.1-0.3c-0.3,0-0.7,0.1-1,0.2
	V4.4c0-1.3-1-2.3-2.3-2.3H10.2v3.4c0,2.4-2,4.4-4.4,4.4H2.1v21.5c0,1.3,1,2.3,2.3,2.3h15.8V34.2z M35.7,29.8
	c0.4,0.6,0.2,1.3-0.5,1.5c-0.6,0.3-1.2,0.5-1.8,0.7c-0.1,0-0.2,0.1-0.2,0.3c0,0.7-0.1,1.3-0.1,2c0,0.7-0.6,1.1-1.3,0.9
	c-0.7-0.2-1.3-0.3-2-0.5c-0.1,0-0.2,0-0.3,0.1c-0.4,0.5-0.8,1-1.3,1.5c-0.5,0.6-1.1,0.6-1.6,0c-0.4-0.5-0.8-1-1.3-1.5
	c-0.1-0.1-0.2-0.1-0.3-0.1c-0.6,0.2-1.3,0.3-1.9,0.5c-0.8,0.3-1.3-0.3-1.3-1c0-0.6-0.1-1.3-0.1-1.9c0-0.1,0-0.2-0.2-0.3
	c-0.6-0.3-1.3-0.5-1.9-0.7c-0.6-0.3-0.8-0.9-0.5-1.4c0.4-0.6,0.8-1.2,1.1-1.7c0.1-0.1,0.1-0.2,0-0.3c-0.4-0.5-0.8-1.1-1.1-1.7
	c-0.4-0.6-0.2-1.2,0.5-1.5c0.6-0.3,1.3-0.5,1.9-0.7c0.1,0,0.2-0.1,0.2-0.3c0-0.7,0-1.3,0.1-2c0-0.7,0.6-1.1,1.5-0.9
	c0.5,0.1,1.1,0.3,1.7,0.5c0.2,0,0.3,0,0.4-0.1c0.4-0.5,0.8-1,1.2-1.5c0.5-0.6,1.1-0.5,1.6,0c0.4,0.5,0.8,1,1.3,1.5
	c0.1,0.1,0.2,0.2,0.3,0.1c0.6-0.2,1.3-0.4,1.9-0.5c0.7-0.2,1.3,0.2,1.3,0.9c0,0.7,0.1,1.3,0.1,2c0,0.1,0,0.2,0.2,0.3
	c0.6,0.2,1.2,0.5,1.8,0.7c0.7,0.3,0.9,0.9,0.5,1.5c-0.3,0.5-0.7,1.1-1.1,1.6c-0.1,0.1-0.1,0.2,0,0.3C35,28.6,35.3,29.2,35.7,29.8
	 M31.7,24.8c-0.4-0.4-1.1-0.4-1.5,0l-4.1,4.1l-1.5-1.5c-0.4-0.4-1.1-0.4-1.5,0c-0.4,0.4-0.4,1.1,0,1.5l1.5,1.5l0.5,0.5l0.2,0.2
	c0.4,0.4,1.1,0.4,1.5,0l4.8-4.8C32.2,25.9,32.2,25.2,31.7,24.8"/>
</svg>
