<?xml version="1.0" encoding="utf-8"?>
<!-- Generator: Adobe Illustrator 16.0.3, SVG Export Plug-In . SVG Version: 6.00 Build 0)  -->
<!DOCTYPE svg PUBLIC "-//W3C//DTD SVG 1.1//EN" "http://www.w3.org/Graphics/SVG/1.1/DTD/svg11.dtd">
<svg version="1.1" id="Capa_1" xmlns="http://www.w3.org/2000/svg" xmlns:xlink="http://www.w3.org/1999/xlink" x="0px" y="0px"
	 width="238.725px" height="214.461px" viewBox="0 0 238.725 214.461" enable-background="new 0 0 238.725 214.461"
	 xml:space="preserve">
<g id="Capa_x0020_1">
	<g id="_2078752421648">
		<path fill="#FFFFFF" d="M14.382,0h192.86c3.949,0,7.543,1.619,10.147,4.222c2.617,2.605,4.234,6.203,4.234,10.16V114.63
			l17.101,4.32l-14.339,14.341l13.622,13.622l-16.555,16.556l-13.622-13.623l-14.34,14.338l-4.604-18.221h-42.467v22.676
			l54.055,0.041c1.453-0.006,2.863,0.621,3.949,1.635c0.96,0.894,1.724,2.135,2.048,3.499l8.017,33.579
			c0.134,0.564,0.199,1.122,0.199,1.648c0,1.173-0.316,2.263-0.889,3.154c-0.691,1.07-1.706,1.832-2.965,2.131
			c-0.397,0.086-0.782,0.135-1.146,0.135H11.308c-0.26,0-0.555-0.031-0.874-0.09c-1.373-0.256-2.464-1.038-3.187-2.175
			c-0.573-0.92-0.895-2.04-0.895-3.236c0-0.396,0.044-0.843,0.134-1.331l5.16-33.392c0.254-1.362,1.391-3.068,2.284-3.978
			c1.036-1.057,2.414-1.717,3.89-1.723l56.799,0.045v-22.618H14.383c-3.958,0-7.556-1.618-10.16-4.222
			C1.619,139.125,0,135.531,0,131.583v-117.2C0,10.434,1.619,6.84,4.223,4.235l0.012-0.013C6.84,1.619,10.434,0,14.382,0L14.382,0z
			 M221.625,119.647l-6.335-1.6l-30.379-7.675l7.394,29.257l1.6,6.335l2.203,8.716l8.717-8.716l3.006-3.007l2.64,2.639
			l10.983,10.983l9.665-9.665l-10.376-10.377l-3.246-3.246l4.129-4.129l7.596-7.596L221.625,119.647z M215.29,113.032V14.382
			c0-2.21-0.905-4.222-2.365-5.683c-1.452-1.461-3.467-2.366-5.683-2.366H14.382c-2.215,0-4.23,0.905-5.688,2.36
			c-1.455,1.457-2.36,3.473-2.36,5.688v117.199c0,2.216,0.905,4.23,2.36,5.688c1.466,1.454,3.479,2.36,5.688,2.36h60.237v-0.002
			h3.167h68.635v0.002h40.866l-9.088-35.97L215.29,113.032L215.29,113.032z M140.087,145.963H80.953v22.624l59.134,0.046V145.963z
			 M146.421,174.918v0.078H74.619v-0.053l-56.052,0.129l-5.75,33.055h195.339l-7.844-32.855c-0.024-0.105-0.081-0.203-0.148-0.281
			L146.421,174.918L146.421,174.918z"/>
		<polygon fill="#FFFFFF" points="55.626,40.327 55.626,28.189 166.339,28.189 166.339,40.327 161.466,40.327 161.466,33.063 
			60.499,33.063 60.499,40.327 		"/>
		<path fill="#FFFFFF" d="M58.628,43.695l102.788-0.048c0.735-0.001,1.484,0.192,2.106,0.497c0.744,0.363,1.394,0.934,1.769,1.615
			l5.945,10.807c0.283,0.516,0.417,1.047,0.417,1.562c0,0.581-0.162,1.122-0.465,1.598c-0.272,0.43-0.659,0.788-1.128,1.047
			c-0.499,0.274-1.116,0.435-1.803,0.434l-114.881-0.14c-0.526,0.01-1.03-0.095-1.479-0.289c-0.546-0.232-1.002-0.594-1.335-1.048
			c-0.385-0.526-0.592-1.138-0.592-1.798c0-0.406,0.092-0.843,0.28-1.279l4.567-10.645c0.323-0.748,0.947-1.375,1.694-1.777
			C57.15,43.896,57.901,43.689,58.628,43.695L58.628,43.695z M109.655,48.526l-50.63,0.026l-3.297,7.664l109.841,0.134l-4.319-7.851
			L109.655,48.526L109.655,48.526z M161.43,48.5h-0.034H161.43z"/>
		<path fill="#FFFFFF" d="M57.722,65.203h108.617v60.524H55.285V65.203H57.722L57.722,65.203z M161.466,70.075H60.158v50.779
			h101.308V70.075z"/>
		<path fill="#FFFFFF" d="M99.856,76.59h56.77v39.453H97.42V76.59H99.856L99.856,76.59z M151.752,81.463h-49.46v29.708h49.46V81.463
			z"/>
		<path fill="#FFFFFF" d="M84.083,81.463H69.532v29.708h14.551V81.463z M67.096,76.59h21.86v39.453H64.659V76.59H67.096z"/>
	</g>
</g>
</svg>
