<?xml version="1.0" encoding="utf-8"?>
<!-- Generator: Adobe Illustrator 16.0.3, SVG Export Plug-In . SVG Version: 6.00 Build 0)  -->
<!DOCTYPE svg PUBLIC "-//W3C//DTD SVG 1.1//EN" "http://www.w3.org/Graphics/SVG/1.1/DTD/svg11.dtd">
<svg version="1.1" id="Layer_1" xmlns="http://www.w3.org/2000/svg" xmlns:xlink="http://www.w3.org/1999/xlink" x="0px" y="0px"
	 width="612px" height="792px" viewBox="0 0 612 792" enable-background="new 0 0 612 792" xml:space="preserve">
<path fill="#606060" d="M465,668.75c0,10.229-6.543,20.1-1.429,28.623l-388.563-2.192C32.39,695.181,0,661.086,0,620.173V240.017
	c0-3.409,0-8.523,3.41-13.638c1.705-3.41,3.409-6.819,6.819-10.229l129.56-122.741c3.41-3.409,6.819-5.114,10.229-6.819
	c5.114-3.409,8.524-3.409,13.638-3.409h247.186c42.619,0,75.009,34.095,75.009,75.008l2.363,505.57c0,0,0.485,33.613-26.38,33.604
	c-6.293-0.002-12.68-356.396-11.783-314.149V158.189c0-22.162-17.047-39.209-39.209-39.209H173.883v57.961
	c0,40.914-34.095,75.008-75.008,75.008H35.799v366.518c0,22.162,17.047,39.209,39.209,39.209l294.741,0.26l55.751,0.05
	l31.473-29.976L465,668.75z"/>
<rect x="84.5" y="294.5" fill="#606060" width="300" height="34"/>
<rect x="121.5" y="373.277" fill="#606060" width="300" height="34"/>
<rect x="84.5" y="456" fill="#606060" width="300" height="34"/>
<rect x="116.5" y="540" fill="#606060" width="300" height="34"/>
</svg>
