<?xml version="1.0" encoding="utf-8"?>
<!-- Generator: Adobe Illustrator 22.1.0, SVG Export Plug-In . SVG Version: 6.00 Build 0)  -->
<svg version="1.1" id="Capa_1" xmlns="http://www.w3.org/2000/svg" xmlns:xlink="http://www.w3.org/1999/xlink" x="0px" y="0px"
	 viewBox="0 0 148 138" style="enable-background:new 0 0 148 138;" xml:space="preserve">
<style type="text/css">
	.st0{fill:#FFFFFF;}
	.st1{fill:none;stroke:#FFFFFF;stroke-width:4;stroke-linecap:round;stroke-linejoin:round;stroke-miterlimit:10;}
</style>
<g>
	<g>
		<path class="st0" d="M106.8,39.7L77.9,10.8c-0.5-0.5-1.1-0.7-1.8-0.7H20.7c-6.5,0-11.9,5.4-11.9,11.9v96c0,6.5,5.4,11.9,11.9,11.9
			h74.9c6.5,0,11.9-5.4,11.9-11.9V41.5C107.5,40.8,107.3,40.2,106.8,39.7z M78.6,18.3l20.6,20.6H85.5c-1.9,0-3.6-0.7-5-2
			c-1.3-1.3-2-3.1-2-5V18.3H78.6z M102.6,117.8c0,3.8-3.1,7-7,7H20.7c-3.8,0-7-3.1-7-7v-96c0-3.8,3.1-7,7-7h53V32
			c0,3.2,1.2,6.2,3.4,8.4c2.3,2.3,5.2,3.4,8.4,3.4h17.1L102.6,117.8L102.6,117.8z"/>
	</g>
</g>
<g>
	<g>
		<path class="st0" d="M32.8,81h-1.1c-1.3,0-2.5,1.1-2.5,2.5s1.1,2.5,2.5,2.5h1.1c1.3,0,2.5-1.1,2.5-2.5S34.2,81,32.8,81z"/>
	</g>
</g>
<g>
	<g>
		<path class="st0" d="M84.6,81H40.8c-1.3,0-2.5,1.1-2.5,2.5s1.1,2.5,2.5,2.5h43.8c1.3,0,2.5-1.1,2.5-2.5S85.9,81,84.6,81z"/>
	</g>
</g>
<g>
	<g>
		<path class="st0" d="M32.8,69.9h-1.1c-1.3,0-2.5,1.1-2.5,2.5s1.1,2.5,2.5,2.5h1.1c1.3,0,2.5-1.1,2.5-2.5S34.2,69.9,32.8,69.9z"/>
	</g>
</g>
<g>
	<g>
		<path class="st0" d="M84.6,69.9H40.8c-1.3,0-2.5,1.1-2.5,2.5s1.1,2.5,2.5,2.5h43.8c1.3,0,2.5-1.1,2.5-2.5S85.9,69.9,84.6,69.9z"/>
	</g>
</g>
<g>
	<g>
		<path class="st0" d="M32.8,58.7h-1.1c-1.3,0-2.5,1.1-2.5,2.5s1.1,2.5,2.5,2.5h1.1c1.3,0,2.5-1.1,2.5-2.5S34.2,58.7,32.8,58.7z"/>
	</g>
</g>
<g>
	<g>
		<path class="st0" d="M84.6,58.7H40.8c-1.3,0-2.5,1.1-2.5,2.5s1.1,2.5,2.5,2.5h43.8c1.3,0,2.5-1.1,2.5-2.5S85.9,58.7,84.6,58.7z"/>
	</g>
</g>
<polyline class="st1" points="85.1,21.5 137,21.5 137,116.6 105.5,116.6 "/>
</svg>
