<?xml version="1.0" encoding="utf-8"?>
<!-- Generator: Adobe Illustrator 22.1.0, SVG Export Plug-In . SVG Version: 6.00 Build 0)  -->
<svg version="1.1" id="Capa_1" xmlns="http://www.w3.org/2000/svg" xmlns:xlink="http://www.w3.org/1999/xlink" x="0px" y="0px"
	 viewBox="0 0 39.6 37.6" style="enable-background:new 0 0 39.6 37.6;" xml:space="preserve">
<style type="text/css">
	.st0{fill:#C03360;}
	.st1{fill:none;stroke:#C03360;stroke-width:1.3432;stroke-linecap:round;stroke-linejoin:round;stroke-miterlimit:10;}
</style>
<g>
	<g>
		<g>
			<g>
				<path class="st0" d="M29.3,10.3l-8.2-8.2C21,2,20.8,1.9,20.6,1.9H5c-1.8,0-3.4,1.5-3.4,3.4v27.1c0,1.8,1.5,3.4,3.4,3.4h21.2
					c1.8,0,3.4-1.5,3.4-3.4V10.7C29.5,10.6,29.5,10.4,29.3,10.3z M21.4,4.2l5.8,5.8h-3.8c-0.5,0-1-0.2-1.4-0.6
					C21.6,9,21.4,8.5,21.4,8C21.4,8,21.4,4.2,21.4,4.2z M28.2,32.3c0,1.1-0.9,2-2,2H5c-1.1,0-2-0.9-2-2V5.2c0-1.1,0.9-2,2-2h15V8
					c0,0.9,0.3,1.7,1,2.4c0.6,0.6,1.5,1,2.4,1h4.8V32.3L28.2,32.3z"/>
			</g>
		</g>
	</g>
	<g>
		<g>
			<path class="st0" d="M8.5,21.9H8.2c-0.4,0-0.7,0.3-0.7,0.7s0.3,0.7,0.7,0.7h0.3c0.4,0,0.7-0.3,0.7-0.7S8.8,21.9,8.5,21.9z"/>
		</g>
	</g>
	<g>
		<g>
			<path class="st0" d="M23.1,21.9H10.7c-0.4,0-0.7,0.3-0.7,0.7s0.3,0.7,0.7,0.7h12.4c0.4,0,0.7-0.3,0.7-0.7S23.4,21.9,23.1,21.9z"
				/>
		</g>
	</g>
	<g>
		<g>
			<path class="st0" d="M8.5,18.8H8.2c-0.4,0-0.7,0.3-0.7,0.7c0,0.4,0.3,0.7,0.7,0.7h0.3c0.4,0,0.7-0.3,0.7-0.7
				C9.2,19.1,8.8,18.8,8.5,18.8z"/>
		</g>
	</g>
	<g>
		<g>
			<path class="st0" d="M23.1,18.8H10.7c-0.4,0-0.7,0.3-0.7,0.7c0,0.4,0.3,0.7,0.7,0.7h12.4c0.4,0,0.7-0.3,0.7-0.7
				C23.8,19.1,23.4,18.8,23.1,18.8z"/>
		</g>
	</g>
	<g>
		<g>
			<path class="st0" d="M8.5,15.6H8.2c-0.4,0-0.7,0.3-0.7,0.7c0,0.4,0.3,0.7,0.7,0.7h0.3c0.4,0,0.7-0.3,0.7-0.7S8.8,15.6,8.5,15.6z"
				/>
		</g>
	</g>
	<g>
		<g>
			<path class="st0" d="M23.1,15.6H10.7c-0.4,0-0.7,0.3-0.7,0.7c0,0.4,0.3,0.7,0.7,0.7h12.4c0.4,0,0.7-0.3,0.7-0.7
				S23.4,15.6,23.1,15.6z"/>
		</g>
	</g>
	<polyline class="st1" points="23.2,5.1 37.9,5.1 37.9,32 29,32 	"/>
</g>
</svg>
